<?xml version="1.0" encoding="UTF-8" standalone="no"?>
<svg
   xmlns:dc="http://purl.org/dc/elements/1.1/"
   xmlns:cc="http://creativecommons.org/ns#"
   xmlns:rdf="http://www.w3.org/1999/02/22-rdf-syntax-ns#"
   xmlns:svg="http://www.w3.org/2000/svg"
   xmlns="http://www.w3.org/2000/svg"
   xmlns:sodipodi="http://sodipodi.sourceforge.net/DTD/sodipodi-0.dtd"
   xmlns:inkscape="http://www.inkscape.org/namespaces/inkscape"
   viewBox="0 0 16 16"
   version="1.1"
   id="svg6"
   sodipodi:docname="bookmark_rename.svg"
   inkscape:version="0.92.4 (5da689c313, 2019-01-14)">
  <metadata
     id="metadata10">
    <rdf:RDF>
      <cc:Work
         rdf:about="">
        <dc:format>image/svg+xml</dc:format>
        <dc:type
           rdf:resource="http://purl.org/dc/dcmitype/StillImage" />
        <dc:title></dc:title>
      </cc:Work>
    </rdf:RDF>
  </metadata>
  <sodipodi:namedview
     pagecolor="#ffffff"
     bordercolor="#666666"
     borderopacity="1"
     objecttolerance="10"
     gridtolerance="10"
     guidetolerance="10"
     inkscape:pageopacity="0"
     inkscape:pageshadow="2"
     inkscape:window-width="1912"
     inkscape:window-height="2056"
     id="namedview8"
     showgrid="false"
     inkscape:zoom="83.4386"
     inkscape:cx="8.3782918"
     inkscape:cy="6.8054345"
     inkscape:window-x="3840"
     inkscape:window-y="0"
     inkscape:window-maximized="0"
     inkscape:current-layer="svg6" />
  <defs
     id="defs3051">
    <style
       type="text/css"
       id="current-color-scheme">
      .ColorScheme-Text {
        color:#232629;
      }
      </style>
  </defs>
  <path
     style="fill:#000000;fill-opacity:1;stroke:none"
     d="M 5 2 C 4.45 2 4 2.45 4 3 L 4 14 L 8 12.40625 L 12 14 L 12 9 L 11 9 L 11 12.59375 L 8 11.40625 L 5 12.59375 L 5 10 L 5 3 L 10.220703 3 L 11 3 L 11 2 L 5 2 z "
     id="path4" />
  <path
     inkscape:connector-curvature="0"
     style="fill:#000000;fill-opacity:1;stroke:none"
     d="m 12,3 -1,0.9960936 0.002,0.00195 -4.5410616,4.5410188 v 1.9999996 h 2 l 0.00195,-0.002 0.00391,0.002 0.7011718,-0.7031247 -0.00391,-0.0039 4.1249998,-4.1347656 0.707031,-0.7070312 z m -0.302734,1.689453 0.582031,0.5820313 0.02539,0.023437 -3.8378892,3.8378911 -0.703125,0.7031249 -0.00195,0.0039 -0.019534,-0.01953 -0.5820312,-0.5820311 z"
     id="path6" />
</svg>
