<?xml version="1.0" encoding="UTF-8" standalone="no"?>
<svg
   xmlns:dc="http://purl.org/dc/elements/1.1/"
   xmlns:cc="http://creativecommons.org/ns#"
   xmlns:rdf="http://www.w3.org/1999/02/22-rdf-syntax-ns#"
   xmlns:svg="http://www.w3.org/2000/svg"
   xmlns="http://www.w3.org/2000/svg"
   xmlns:sodipodi="http://sodipodi.sourceforge.net/DTD/sodipodi-0.dtd"
   xmlns:inkscape="http://www.inkscape.org/namespaces/inkscape"
   viewBox="0 0 16 16"
   version="1.1"
   id="svg10"
   sodipodi:docname="bookmarks.svg"
   inkscape:version="0.92.4 (5da689c313, 2019-01-14)">
  <metadata
     id="metadata14">
    <rdf:RDF>
      <cc:Work
         rdf:about="">
        <dc:format>image/svg+xml</dc:format>
        <dc:type
           rdf:resource="http://purl.org/dc/dcmitype/StillImage" />
        <dc:title></dc:title>
      </cc:Work>
    </rdf:RDF>
  </metadata>
  <sodipodi:namedview
     pagecolor="#ffffff"
     bordercolor="#666666"
     borderopacity="1"
     objecttolerance="10"
     gridtolerance="10"
     guidetolerance="10"
     inkscape:pageopacity="0"
     inkscape:pageshadow="2"
     inkscape:window-width="1912"
     inkscape:window-height="2056"
     id="namedview12"
     showgrid="false"
     inkscape:zoom="59"
     inkscape:cx="10.942238"
     inkscape:cy="5.3839142"
     inkscape:window-x="3840"
     inkscape:window-y="0"
     inkscape:window-maximized="0"
     inkscape:current-layer="svg10"
     inkscape:snap-page="true" />
  <defs
     id="defs3051">
    <style
       type="text/css"
       id="current-color-scheme">
      .ColorScheme-Text {
        color:#232629;
      }
      .ColorScheme-NegativeText {
        color:#da4453;
      }
      </style>
  </defs>
  <path
     style="color:#232629;fill:#000000;fill-opacity:1;stroke:none"
     d="M 6 1 C 5.45 1 5 1.45 5 2 L 5 3 L 4 3 C 3.45 3 3 3.45 3 4 L 3 15 L 7 13.40625 L 11 15 L 11 12.203125 L 13 13 L 13 2 C 13 1.45 12.55 1 12 1 L 6 1 z M 6 2 L 12 2 L 12 11.59375 L 11 11.199219 L 11 4 C 11 3.45 10.55 3 10 3 L 6 3 L 6 2 z M 4 4 L 5 4 L 6 4 L 10 4 L 10 10.802734 L 10 11.804688 L 10 13.59375 L 7 12.40625 L 4 13.59375 L 4 11 L 4 4 z "
     id="path4-3" />
</svg>
