<?xml version="1.0" encoding="UTF-8" standalone="no"?>
<svg
   xmlns:dc="http://purl.org/dc/elements/1.1/"
   xmlns:cc="http://creativecommons.org/ns#"
   xmlns:rdf="http://www.w3.org/1999/02/22-rdf-syntax-ns#"
   xmlns:svg="http://www.w3.org/2000/svg"
   xmlns="http://www.w3.org/2000/svg"
   xmlns:sodipodi="http://sodipodi.sourceforge.net/DTD/sodipodi-0.dtd"
   xmlns:inkscape="http://www.inkscape.org/namespaces/inkscape"
   viewBox="0 0 16 16"
   version="1.1"
   id="svg6"
   sodipodi:docname="file_move.svg"
   inkscape:version="0.92.4 (5da689c313, 2019-01-14)">
  <metadata
     id="metadata10">
    <rdf:RDF>
      <cc:Work
         rdf:about="">
        <dc:format>image/svg+xml</dc:format>
        <dc:type
           rdf:resource="http://purl.org/dc/dcmitype/StillImage" />
        <dc:title></dc:title>
      </cc:Work>
    </rdf:RDF>
  </metadata>
  <sodipodi:namedview
     pagecolor="#ffffff"
     bordercolor="#666666"
     borderopacity="1"
     objecttolerance="10"
     gridtolerance="10"
     guidetolerance="10"
     inkscape:pageopacity="0"
     inkscape:pageshadow="2"
     inkscape:window-width="1916"
     inkscape:window-height="1629"
     id="namedview8"
     showgrid="false"
     inkscape:snap-page="true"
     inkscape:zoom="64"
     inkscape:cx="10.035261"
     inkscape:cy="5.8227241"
     inkscape:window-x="3589"
     inkscape:window-y="242"
     inkscape:window-maximized="0"
     inkscape:current-layer="svg6" />
  <defs
     id="defs3051">
    <style
       type="text/css"
       id="current-color-scheme">
      .ColorScheme-Text {
        color:#232629;
      }
      </style>
  </defs>
  <path
     style="fill:#000000;fill-opacity:1;stroke:none"
     d="M 6 1 C 5.45 1 5 1.45 5 2 L 6 2 L 6 1 z M 7 1 L 7 2 L 8 2 L 8 1 L 7 1 z M 9 1 L 9 2 L 10 2 L 10 1 L 9 1 z M 11 1 L 11 2 L 11.46875 2 L 12 2 L 12 1 L 11 1 z M 13 1 L 13 2 L 14 2 C 14 1.45 13.55 1 13 1 z M 4 3 C 3.45 3 3 3.45 3 4 L 3 14 C 3 14.55 3.45 15 4 15 L 8 15 L 9 15 L 12 12 L 12 11 L 12 9 L 12 4 C 12 3.45 11.55 3 11 3 L 10 3 L 4 3 z M 13 3 L 13 4 L 14 4 L 14 3 L 13 3 z M 4 4 L 10 4 L 11 4 L 11 9 L 11 11 L 8 11 L 8 14 L 4 14 L 4 4 z M 13 5 L 13 6 L 14 6 L 14 5 L 13 5 z M 13 7 L 13 8 L 14 8 L 14 7 L 13 7 z M 13 9 L 13 11 L 14 10 L 14 9 L 13 9 z "
     id="path61" />
</svg>
