<?xml version="1.0" encoding="UTF-8" standalone="no"?>
<svg
   xmlns:dc="http://purl.org/dc/elements/1.1/"
   xmlns:cc="http://creativecommons.org/ns#"
   xmlns:rdf="http://www.w3.org/1999/02/22-rdf-syntax-ns#"
   xmlns:svg="http://www.w3.org/2000/svg"
   xmlns="http://www.w3.org/2000/svg"
   xmlns:sodipodi="http://sodipodi.sourceforge.net/DTD/sodipodi-0.dtd"
   xmlns:inkscape="http://www.inkscape.org/namespaces/inkscape"
   viewBox="0 0 16 16"
   version="1.1"
   id="svg6"
   sodipodi:docname="history_clear.svg"
   inkscape:version="0.92.4 (5da689c313, 2019-01-14)">
  <metadata
     id="metadata10">
    <rdf:RDF>
      <cc:Work
         rdf:about="">
        <dc:format>image/svg+xml</dc:format>
        <dc:type
           rdf:resource="http://purl.org/dc/dcmitype/StillImage" />
        <dc:title></dc:title>
      </cc:Work>
    </rdf:RDF>
  </metadata>
  <sodipodi:namedview
     pagecolor="#ffffff"
     bordercolor="#666666"
     borderopacity="1"
     objecttolerance="10"
     gridtolerance="10"
     guidetolerance="10"
     inkscape:pageopacity="0"
     inkscape:pageshadow="2"
     inkscape:window-width="1912"
     inkscape:window-height="2056"
     id="namedview8"
     showgrid="false"
     inkscape:snap-bbox="true"
     inkscape:snap-bbox-midpoints="true"
     inkscape:zoom="64"
     inkscape:cx="7.5633809"
     inkscape:cy="8.2179139"
     inkscape:window-x="3840"
     inkscape:window-y="0"
     inkscape:window-maximized="0"
     inkscape:current-layer="svg6"
     inkscape:snap-page="true"
     inkscape:snap-bbox-edge-midpoints="true" />
  <defs
     id="defs3051">
    <style
       type="text/css"
       id="current-color-scheme">
      .ColorScheme-Text {
        color:#232629;
      }
      </style>
  </defs>
  <path
     style="fill:#000000;fill-opacity:1;stroke:none"
     d="M 8.9921875 2 C 5.6784794 2 2.9921875 4.686292 2.9921875 8 C 2.9921875 8.283383 3.0142044 8.5613914 3.0527344 8.8339844 L 1.7148438 7.4960938 L 1.0078125 8.203125 L 3.1289062 10.324219 L 3.8066406 11.001953 C 3.8139406 11.014513 3.8187919 11.028516 3.8261719 11.041016 L 3.8359375 11.03125 L 4.5429688 10.324219 L 4.5742188 10.292969 L 6.6640625 8.203125 L 5.9570312 7.4960938 L 4.1738281 9.2792969 C 4.0592751 8.8717149 3.9921875 8.445486 3.9921875 8 C 3.9921875 5.238577 6.2307638 3 8.9921875 3 C 11.75361 3 13.992187 5.238577 13.992188 8 C 13.992188 8.3467446 13.935256 8.6762334 13.861328 9 L 14.894531 9 C 14.951384 8.6738194 14.992188 8.342541 14.992188 8 C 14.992188 4.686292 12.305895 2 8.9921875 2 z M 7.9921875 4 L 7.9921875 8 L 7.9921875 9 L 8.9921875 9 L 11.992188 9 L 11.992188 8 L 8.9921875 8 L 8.9921875 7.3164062 L 8.9921875 4 L 7.9921875 4 z M 6.6972656 12.417969 L 5.9492188 13.164062 C 6.8422048 13.691434 7.8800049 14 8.9921875 14 L 8.9921875 13 C 8.1598303 13 7.3876281 12.777758 6.6972656 12.417969 z "
     id="path145-5" />
  <path
     inkscape:connector-curvature="0"
     style="color:#232629;fill:#000000;fill-opacity:1;stroke:none"
     d="m 10.738281,9.96875 -0.707031,0.707031 1.792969,1.792969 -1.792969,1.792969 0.707031,0.707031 1.792969,-1.792969 1.792969,1.792969 L 15.03125,14.261719 13.238282,12.46875 15.03125,10.675781 14.324219,9.96875 12.53125,11.761719 Z"
     id="path4-3" />
</svg>
