<?xml version="1.0" encoding="UTF-8" standalone="no"?>
<svg
   xmlns:dc="http://purl.org/dc/elements/1.1/"
   xmlns:cc="http://creativecommons.org/ns#"
   xmlns:rdf="http://www.w3.org/1999/02/22-rdf-syntax-ns#"
   xmlns:svg="http://www.w3.org/2000/svg"
   xmlns="http://www.w3.org/2000/svg"
   xmlns:sodipodi="http://sodipodi.sourceforge.net/DTD/sodipodi-0.dtd"
   xmlns:inkscape="http://www.inkscape.org/namespaces/inkscape"
   viewBox="0 0 16 16"
   version="1.1"
   id="svg5"
   sodipodi:docname="saved_views.svg"
   inkscape:version="0.92.4 (5da689c313, 2019-01-14)">
  <metadata
     id="metadata9">
    <rdf:RDF>
      <cc:Work
         rdf:about="">
        <dc:format>image/svg+xml</dc:format>
        <dc:type
           rdf:resource="http://purl.org/dc/dcmitype/StillImage" />
        <dc:title></dc:title>
      </cc:Work>
    </rdf:RDF>
  </metadata>
  <sodipodi:namedview
     pagecolor="#ffffff"
     bordercolor="#666666"
     borderopacity="1"
     objecttolerance="10"
     gridtolerance="10"
     guidetolerance="10"
     inkscape:pageopacity="0"
     inkscape:pageshadow="2"
     inkscape:window-width="1554"
     inkscape:window-height="1641"
     id="namedview7"
     showgrid="false"
     inkscape:zoom="22.627417"
     inkscape:cx="8.0773344"
     inkscape:cy="-5.5815866"
     inkscape:window-x="3664"
     inkscape:window-y="261"
     inkscape:window-maximized="0"
     inkscape:current-layer="svg5"
     inkscape:snap-bbox="true"
     inkscape:snap-bbox-edge-midpoints="false"
     inkscape:bbox-nodes="true" />
  <defs
     id="defs3051">
    <style
       type="text/css"
       id="current-color-scheme">
      .ColorScheme-Text {
        color:#232629;
      }
      </style>
  </defs>
  <path
     style="fill:#000000;fill-opacity:1;stroke:none"
     d="M 3 2 C 2.45 2 2 2.45 2 3 L 2 13 C 2 13.55 2.45 14 3 14 L 9 14 L 13 14 C 13.55 14 14 13.55 14 13 L 14 9 L 14 5 C 14 4.45 13.55 4 13 4 L 9.0078125 4 L 7.0078125 2 L 7 2.0078125 L 7 2 L 3 2 z M 6.9980469 6 L 13 6 L 13 9 L 13 13 L 9 13 L 3 13 L 3 8 L 5 8 L 6.9980469 6 z "
     id="path13" />
  <g
     transform="matrix(0.50753997,0,0,0.50753997,-210.09931,-263.99552)"
     id="g7"
     style="fill:#000000">
    <g
       transform="matrix(0.75,0,0,0.74999813,421.46429,-241.22897)"
       id="g5"
       style="fill:#000000">
      <path
         inkscape:connector-curvature="0"
         style="color:#232629;fill:#000000;fill-opacity:1;stroke:none"
         d="M 8,3 A 8.9999925,9.0000023 0 0 0 0.12304688,7.6679688 c 0.12894502,0.363749 0.35743875,0.6766037 0.65625,0.9082031 A 7.9999935,8.0000021 0 0 1 8,4 3.9999996,4.0000004 0 0 0 4,8 3.9999996,4.0000004 0 0 0 8,12 3.9999996,4.0000004 0 0 0 12,8 3.9999996,4.0000004 0 0 0 8.3496094,4.0175781 7.9999935,8.0000021 0 0 1 15.220703,8.5761719 C 15.522218,8.3424725 15.752612,8.0260772 15.880859,7.6582031 A 8.9999925,9.0000023 0 0 0 8,3 Z M 8,5 A 2.9999996,3.0000002 0 0 1 11,8 2.9999996,3.0000002 0 0 1 8,11 2.9999996,3.0000002 0 0 1 5,8 2.9999996,3.0000002 0 0 1 8,5 Z M 8,6 A 1.9999999,2.0000003 0 0 0 6,8 1.9999999,2.0000003 0 0 0 8,10 1.9999999,2.0000003 0 0 0 10,8 1.9999999,2.0000003 0 0 0 9.9101562,7.4121094 0.9999999,1 0 0 1 9,8 0.9999999,1 0 0 1 8,7 0.9999999,1 0 0 1 8.5898438,6.0898438 1.9999999,2.0000003 0 0 0 8,6 Z"
         transform="matrix(1.3333333,0,0,1.3333367,0.33333333,1030.6955)"
         class="ColorScheme-Text"
         id="rect4170" />
    </g>
  </g>
</svg>
