<?xml version="1.0" encoding="UTF-8" standalone="no"?>
<svg
   xmlns:dc="http://purl.org/dc/elements/1.1/"
   xmlns:cc="http://creativecommons.org/ns#"
   xmlns:rdf="http://www.w3.org/1999/02/22-rdf-syntax-ns#"
   xmlns:svg="http://www.w3.org/2000/svg"
   xmlns="http://www.w3.org/2000/svg"
   xmlns:sodipodi="http://sodipodi.sourceforge.net/DTD/sodipodi-0.dtd"
   xmlns:inkscape="http://www.inkscape.org/namespaces/inkscape"
   viewBox="0 0 16 16"
   version="1.1"
   id="svg5"
   sodipodi:docname="second_panel.svg"
   inkscape:version="0.92.4 (5da689c313, 2019-01-14)">
  <metadata
     id="metadata9">
    <rdf:RDF>
      <cc:Work
         rdf:about="">
        <dc:format>image/svg+xml</dc:format>
        <dc:type
           rdf:resource="http://purl.org/dc/dcmitype/StillImage" />
        <dc:title />
      </cc:Work>
    </rdf:RDF>
  </metadata>
  <sodipodi:namedview
     pagecolor="#ffffff"
     bordercolor="#666666"
     borderopacity="1"
     objecttolerance="10"
     gridtolerance="10"
     guidetolerance="10"
     inkscape:pageopacity="0"
     inkscape:pageshadow="2"
     inkscape:window-width="1912"
     inkscape:window-height="2056"
     id="namedview7"
     showgrid="false"
     inkscape:zoom="59"
     inkscape:cx="7.6697661"
     inkscape:cy="10.260603"
     inkscape:window-x="3840"
     inkscape:window-y="0"
     inkscape:window-maximized="0"
     inkscape:current-layer="svg5"
     inkscape:snap-bbox="true"
     inkscape:bbox-nodes="true"
     inkscape:snap-page="true" />
  <defs
     id="defs3051">
    <style
       type="text/css"
       id="current-color-scheme">
      .ColorScheme-Text {
        color:#232629;
      }
      </style>
  </defs>
  <path
     style="fill:#000000;fill-opacity:1;stroke:none;stroke-width:3.7416575"
     d="M 2 1 C 1.45 1 1 1.45 1 2 L 1 14 C 1 14.55 1.45 15 2 15 L 6 15 C 6.55 15 7 14.55 7 14 L 7 2 C 7 1.45 6.5499997 1 6 1 L 2 1 z M 2 2 L 6 2 L 6 9 L 2 9 L 2 2 z M 2 10 L 6 10 L 6 14 L 2 14 L 2 10 z "
     id="path260" />
  <path
     style="fill:#000000;fill-opacity:0.49803922;stroke:none;stroke-width:3.7416575"
     d="M 10 1 C 9.45 1 9 1.45 9 2 L 9 14 C 9 14.55 9.45 15 10 15 L 14 15 C 14.55 15 15 14.55 15 14 L 15 10 L 15 9 L 15 2 C 15 1.45 14.55 1 14 1 L 10 1 z M 10 2 L 14 2 L 14 9 L 10 9 L 10 2 z M 11 3 L 11 4 L 12 4 L 13 4 L 13 3 L 12 3 L 11 3 z M 11 5 L 11 6 L 12 6 L 13 6 L 13 5 L 12 5 L 11 5 z M 11 7 L 11 8 L 12 8 L 13 8 L 13 7 L 12 7 L 11 7 z M 10 10 L 14 10 L 14 14 L 10 14 L 10 10 z "
     id="path258" />
  <path
     style="fill:#000000;fill-opacity:1;stroke:none;stroke-width:3.7416575"
     d="M 3,3 V 4 H 4 5 V 3 H 4 Z"
     id="path252" />
  <path
     style="fill:#000000;fill-opacity:1;stroke:none;stroke-width:3.7416575"
     d="M 3,5 V 6 H 4 5 V 5 H 4 Z"
     id="path248" />
  <path
     style="fill:#000000;fill-opacity:1;stroke:none;stroke-width:3.7416575"
     d="M 3,7 V 8 H 4 5 V 7 H 4 Z"
     id="path244" />
</svg>
