<?xml version="1.0" encoding="UTF-8" standalone="no"?>
<svg
   xmlns:dc="http://purl.org/dc/elements/1.1/"
   xmlns:cc="http://creativecommons.org/ns#"
   xmlns:rdf="http://www.w3.org/1999/02/22-rdf-syntax-ns#"
   xmlns:svg="http://www.w3.org/2000/svg"
   xmlns="http://www.w3.org/2000/svg"
   xmlns:sodipodi="http://sodipodi.sourceforge.net/DTD/sodipodi-0.dtd"
   xmlns:inkscape="http://www.inkscape.org/namespaces/inkscape"
   viewBox="0 0 16 16"
   version="1.1"
   id="svg6"
   sodipodi:docname="bookmark_rename.svg"
   inkscape:version="0.92.4 (5da689c313, 2019-01-14)">
  <metadata
     id="metadata10">
    <rdf:RDF>
      <cc:Work
         rdf:about="">
        <dc:format>image/svg+xml</dc:format>
        <dc:type
           rdf:resource="http://purl.org/dc/dcmitype/StillImage" />
        <dc:title />
      </cc:Work>
    </rdf:RDF>
  </metadata>
  <sodipodi:namedview
     pagecolor="#ffffff"
     bordercolor="#666666"
     borderopacity="1"
     objecttolerance="10"
     gridtolerance="10"
     guidetolerance="10"
     inkscape:pageopacity="0"
     inkscape:pageshadow="2"
     inkscape:window-width="1912"
     inkscape:window-height="2056"
     id="namedview8"
     showgrid="false"
     inkscape:zoom="83.4386"
     inkscape:cx="8.3782918"
     inkscape:cy="6.8054345"
     inkscape:window-x="3840"
     inkscape:window-y="0"
     inkscape:window-maximized="0"
     inkscape:current-layer="svg6" />
  <defs
     id="defs3051">
    <style
       type="text/css"
       id="current-color-scheme">
      .ColorScheme-Text {
        color:#232629;
      }
      </style>
  </defs>
  <path
     style="fill:#ffffff;fill-opacity:1;stroke:none"
     d="M 5 2 C 4.45 2 4 2.45 4 3 L 4 14 L 8 12.40625 L 12 14 L 12 9 L 11 9 L 11 12.59375 L 8 11.40625 L 5 12.59375 L 5 10 L 5 3 L 10.220703 3 L 11 3 L 11 2 L 5 2 z M 12 3 L 11 3.9960938 L 11.001953 3.9980469 L 6.4609375 8.5390625 L 6.4609375 10.539062 L 8.4609375 10.539062 L 8.4628906 10.537109 L 8.4667969 10.539062 L 9.1679688 9.8359375 L 9.1640625 9.8320312 L 13.289062 5.6972656 L 13.996094 4.9902344 L 12 3 z M 11.697266 4.6894531 L 12.279297 5.2714844 L 12.304688 5.2949219 L 8.4667969 9.1328125 L 7.7636719 9.8359375 L 7.7617188 9.8398438 L 7.7421875 9.8203125 L 7.1601562 9.2382812 L 11.697266 4.6894531 z "
     id="path4" />
</svg>
