<?xml version="1.0" encoding="UTF-8" standalone="no"?>
<svg
   xmlns:dc="http://purl.org/dc/elements/1.1/"
   xmlns:cc="http://creativecommons.org/ns#"
   xmlns:rdf="http://www.w3.org/1999/02/22-rdf-syntax-ns#"
   xmlns:svg="http://www.w3.org/2000/svg"
   xmlns="http://www.w3.org/2000/svg"
   xmlns:sodipodi="http://sodipodi.sourceforge.net/DTD/sodipodi-0.dtd"
   xmlns:inkscape="http://www.inkscape.org/namespaces/inkscape"
   viewBox="0 0 16 16"
   version="1.1"
   id="svg10"
   sodipodi:docname="dashboard_lr.svg"
   inkscape:version="0.92.4 (5da689c313, 2019-01-14)">
  <metadata
     id="metadata14">
    <rdf:RDF>
      <cc:Work
         rdf:about="">
        <dc:format>image/svg+xml</dc:format>
        <dc:type
           rdf:resource="http://purl.org/dc/dcmitype/StillImage" />
        <dc:title></dc:title>
      </cc:Work>
    </rdf:RDF>
  </metadata>
  <sodipodi:namedview
     pagecolor="#ffffff"
     bordercolor="#666666"
     borderopacity="1"
     objecttolerance="10"
     gridtolerance="10"
     guidetolerance="10"
     inkscape:pageopacity="0"
     inkscape:pageshadow="2"
     inkscape:window-width="1912"
     inkscape:window-height="2056"
     id="namedview12"
     showgrid="false"
     inkscape:zoom="59"
     inkscape:cx="12.151031"
     inkscape:cy="4.8949311"
     inkscape:window-x="3840"
     inkscape:window-y="0"
     inkscape:window-maximized="0"
     inkscape:current-layer="svg10"
     inkscape:snap-page="true" />
  <defs
     id="defs3051">
    <style
       type="text/css"
       id="current-color-scheme">
      .ColorScheme-Text {
        color:#232629;
      }
      .ColorScheme-NegativeText {
        color:#da4453;
      }
      </style>
  </defs>
  <path
     style="fill:#ffffff;fill-opacity:1;stroke:none;stroke-width:2.23606801"
     d="M 2 2 L 2 3 L 2 6 L 2 7 L 2 8 L 2 13 L 2 14 L 7 14 L 7 13 L 7 7 L 7 6 L 7 5 L 7 3 L 7 2 L 2 2 z M 8 2 L 8 3 L 8 8 L 8 9 L 14 9 L 14 8 L 14 3 L 14 2 L 8 2 z M 3 3 L 6 3 L 6 5 L 6 6 L 6 7 L 6 8 L 6 13 L 3 13 L 3 8 L 3 7 L 3 6 L 3 5 L 3 3 z M 9 3 L 13 3 L 13 8 L 9 8 L 9 3 z M 8 10 L 8 11 L 8 13.236328 L 8 14 L 14 14 L 14 13 L 14 11 L 14 10 L 8 10 z M 9 11 L 13 11 L 13 13 L 9 13 L 9 11 z "
     id="path42" />
</svg>
