<?xml version="1.0" encoding="UTF-8" standalone="no"?>
<svg
   xmlns:dc="http://purl.org/dc/elements/1.1/"
   xmlns:cc="http://creativecommons.org/ns#"
   xmlns:rdf="http://www.w3.org/1999/02/22-rdf-syntax-ns#"
   xmlns:svg="http://www.w3.org/2000/svg"
   xmlns="http://www.w3.org/2000/svg"
   xmlns:sodipodi="http://sodipodi.sourceforge.net/DTD/sodipodi-0.dtd"
   xmlns:inkscape="http://www.inkscape.org/namespaces/inkscape"
   viewBox="0 0 16 16"
   version="1.1"
   id="svg5"
   sodipodi:docname="filter_alt.svg"
   inkscape:version="0.92.4 (5da689c313, 2019-01-14)">
  <metadata
     id="metadata9">
    <rdf:RDF>
      <cc:Work
         rdf:about="">
        <dc:format>image/svg+xml</dc:format>
        <dc:type
           rdf:resource="http://purl.org/dc/dcmitype/StillImage" />
        <dc:title />
      </cc:Work>
    </rdf:RDF>
  </metadata>
  <sodipodi:namedview
     pagecolor="#ffffff"
     bordercolor="#666666"
     borderopacity="1"
     objecttolerance="10"
     gridtolerance="10"
     guidetolerance="10"
     inkscape:pageopacity="0"
     inkscape:pageshadow="2"
     inkscape:window-width="1912"
     inkscape:window-height="2056"
     id="namedview7"
     showgrid="false"
     inkscape:zoom="64"
     inkscape:cx="9.399685"
     inkscape:cy="9.3909788"
     inkscape:window-x="3840"
     inkscape:window-y="0"
     inkscape:window-maximized="0"
     inkscape:current-layer="svg5"
     inkscape:snap-bbox="true"
     inkscape:bbox-nodes="true"
     inkscape:snap-page="true" />
  <defs
     id="defs3051">
    <style
       type="text/css"
       id="current-color-scheme">
      .ColorScheme-Text {
        color:#232629;
      }
      </style>
  </defs>
  <path
     style="fill:#ffffff;stroke-width:0.5"
     d="M 3 3 L 3 4 L 3 5 L 3 6 L 6 9 L 6 10 L 6 13 C 6 13.55 6.45 14 7 14 L 8 14 L 9 14 C 9.55 14 10 13.55 10 13 L 10 10 L 10 9 L 13 6 L 13 5 L 13 4 L 13 3 L 3 3 z M 4 4 L 12 4 L 12 5 L 12 5.5859375 L 9 8.5859375 L 9 9 L 9 10 L 9 13 L 8 13 L 7 13 L 7 10 L 7 9 L 7 8.5859375 L 4 5.5859375 L 4 5 L 4 4 z M 11 13 L 11 14 L 12 14 L 12 13 L 11 13 z M 13 13 L 13 14 L 14 14 L 14 13 L 13 13 z "
     id="path173" />
</svg>
