<?xml version="1.0" encoding="UTF-8" standalone="no"?>
<svg
   xmlns:dc="http://purl.org/dc/elements/1.1/"
   xmlns:cc="http://creativecommons.org/ns#"
   xmlns:rdf="http://www.w3.org/1999/02/22-rdf-syntax-ns#"
   xmlns:svg="http://www.w3.org/2000/svg"
   xmlns="http://www.w3.org/2000/svg"
   xmlns:sodipodi="http://sodipodi.sourceforge.net/DTD/sodipodi-0.dtd"
   xmlns:inkscape="http://www.inkscape.org/namespaces/inkscape"
   viewBox="0 0 16 16"
   version="1.1"
   id="svg5"
   sodipodi:docname="__model-16__.svg"
   inkscape:version="0.92.4 (5da689c313, 2019-01-14)">
  <metadata
     id="metadata9">
    <rdf:RDF>
      <cc:Work
         rdf:about="">
        <dc:format>image/svg+xml</dc:format>
        <dc:type
           rdf:resource="http://purl.org/dc/dcmitype/StillImage" />
        <dc:title />
      </cc:Work>
    </rdf:RDF>
  </metadata>
  <sodipodi:namedview
     pagecolor="#ffffff"
     bordercolor="#666666"
     borderopacity="1"
     objecttolerance="10"
     gridtolerance="10"
     guidetolerance="10"
     inkscape:pageopacity="0"
     inkscape:pageshadow="2"
     inkscape:window-width="956"
     inkscape:window-height="997"
     id="namedview7"
     showgrid="false"
     inkscape:zoom="45.254834"
     inkscape:cx="4.496386"
     inkscape:cy="12.535461"
     inkscape:window-x="0"
     inkscape:window-y="0"
     inkscape:window-maximized="0"
     inkscape:current-layer="svg5"
     inkscape:snap-bbox="true"
     inkscape:bbox-nodes="true"
     inkscape:snap-page="true"
     inkscape:snap-bbox-edge-midpoints="true"
     inkscape:snap-intersection-paths="false"
     inkscape:snap-smooth-nodes="true"
     inkscape:bbox-paths="true" />
  <defs
     id="defs3051">
    <style
       type="text/css"
       id="current-color-scheme">
      .ColorScheme-Text {
        color:#232629;
      }
      </style>
  </defs>
  <path
     style="fill:#ff00ff;fill-opacity:1;stroke:none;stroke-width:2.64575124"
     d="m 14,15 h 1 V 8 h -1 z"
     id="path1079"
     inkscape:connector-curvature="0" />
  <path
     inkscape:connector-curvature="0"
     id="path824"
     d="M 8,1 H 7 v 14 h 1 z"
     style="fill:#ffff00;fill-opacity:1;stroke:none;stroke-width:3.7416575" />
  <path
     style="fill:#ffff00;fill-opacity:1;stroke:none;stroke-width:3.7416575"
     d="M 9,1 H 8 v 14 h 1 z"
     id="path826"
     inkscape:connector-curvature="0" />
  <path
     style="fill:#ff0000;fill-opacity:1;stroke:none"
     d="M 1,1 V 2 H 2 V 1 Z"
     id="path77"
     inkscape:connector-curvature="0" />
  <path
     style="fill:currentColor;fill-opacity:1;stroke:none"
     d="m 0,-2 v 1 h 1 v -1 z"
     id="path75"
     inkscape:connector-curvature="0" />
  <path
     style="fill:#008000;fill-opacity:1;stroke:none;stroke-width:4"
     d="M 0 0 L 0 1 L 0 15 L 0 16 L 16 16 L 16 15 L 16 1 L 16 0 L 0 0 z M 1 1 L 15 1 L 15 15 L 1 15 L 1 1 z "
     id="path75-6" />
  <path
     style="fill:#0000ff;stroke-width:0.5"
     d="M 5,-2 C 4.45,-2 4,-1.55 4,-1 H 5 Z"
     id="path76"
     inkscape:connector-curvature="0" />
  <path
     style="fill:#0000ff;stroke-width:0.50000012"
     d="m 6,-2 v 1 H 7 C 7,-1.55 6.5499997,-2 6,-2 Z"
     id="path72"
     inkscape:connector-curvature="0" />
  <path
     style="fill:#0000ff;stroke-width:0.5"
     d="M 8,-1.9999999 C 8,-1.4499999 8.45,-1 9,-1 v -0.9999999 z"
     id="path68-6"
     inkscape:connector-curvature="0" />
  <path
     style="fill:#0000ff;stroke-width:0.50000006"
     d="m 10,-2 v 1 c 0.55,0 1,-0.4500001 1,-1 z"
     id="path28"
     inkscape:connector-curvature="0" />
  <path
     inkscape:connector-curvature="0"
     id="path741"
     d="M 2,2 V 3 H 3 V 2 Z"
     style="fill:#ff0000;fill-opacity:1;stroke:none" />
  <path
     style="fill:#ff0000;fill-opacity:1;stroke:none"
     d="M 3,1 V 2 H 4 V 1 Z"
     id="path743"
     inkscape:connector-curvature="0" />
  <path
     inkscape:connector-curvature="0"
     id="path745"
     d="M 4,2 V 3 H 5 V 2 Z"
     style="fill:#ff0000;fill-opacity:1;stroke:none" />
  <path
     style="fill:#ff0000;fill-opacity:1;stroke:none"
     d="M 5,1 V 2 H 6 V 1 Z"
     id="path747"
     inkscape:connector-curvature="0" />
  <path
     inkscape:connector-curvature="0"
     id="path749"
     d="M 6,2 V 3 H 7 V 2 Z"
     style="fill:#ff0000;fill-opacity:1;stroke:none" />
  <path
     style="fill:#ff0000;fill-opacity:1;stroke:none"
     d="M 7,1 V 2 H 8 V 1 Z"
     id="path751"
     inkscape:connector-curvature="0" />
  <path
     inkscape:connector-curvature="0"
     id="path753"
     d="M 8,2 V 3 H 9 V 2 Z"
     style="fill:#ff0000;fill-opacity:1;stroke:none" />
  <path
     style="fill:#ff0000;fill-opacity:1;stroke:none;stroke-width:1.41421354"
     d="M 2,4 V 5 H 4 V 4 Z"
     id="path755"
     inkscape:connector-curvature="0" />
  <path
     inkscape:connector-curvature="0"
     id="path761"
     d="M 2,6 V 7 H 5 V 6 Z"
     style="fill:#ff0000;fill-opacity:1;stroke:none;stroke-width:1.73205078" />
  <path
     style="fill:#ff0000;fill-opacity:1;stroke:none;stroke-width:2"
     d="M 2,8 V 9 H 6 V 8 Z"
     id="path765"
     inkscape:connector-curvature="0" />
  <path
     inkscape:connector-curvature="0"
     id="path767"
     d="m 2,10 v 1 h 5 v -1 z"
     style="fill:#ff0000;fill-opacity:1;stroke:none;stroke-width:2.23606801" />
  <path
     style="fill:#ff0000;fill-opacity:1;stroke:none;stroke-width:2.44948983"
     d="m 2,12 v 1 h 6 v -1 z"
     id="path769"
     inkscape:connector-curvature="0" />
  <path
     inkscape:connector-curvature="0"
     id="path773"
     d="m 5,4 v 1 h 9 V 4 Z"
     style="fill:#ff0000;fill-opacity:1;stroke:none;stroke-width:3" />
  <path
     style="fill:#ff0000;fill-opacity:1;stroke:none;stroke-width:2.82842731"
     d="m 6,6 v 1 h 8 V 6 Z"
     id="path775"
     inkscape:connector-curvature="0" />
  <path
     inkscape:connector-curvature="0"
     id="path777"
     d="m 7,8 v 1 h 7 V 8 Z"
     style="fill:#ff0000;fill-opacity:1;stroke:none;stroke-width:2.64575148" />
  <path
     inkscape:connector-curvature="0"
     id="path785"
     d="m 2,-2 v 1 h 1 v -1 z"
     style="fill:#ff0000;fill-opacity:1;stroke:none" />
  <path
     inkscape:connector-curvature="0"
     id="path749-5"
     d="m 14,1 v 1 h 1 V 1 Z"
     style="fill:#ffff00;fill-opacity:1;stroke:none" />
  <path
     style="fill:#ffff00;fill-opacity:1;stroke:none;stroke-width:3.7416575"
     d="m 1,14 v 1 h 14 v -1 z"
     id="path822"
     inkscape:connector-curvature="0" />
  <path
     inkscape:connector-curvature="0"
     id="path858"
     d="m 11,-1 h 1 v -1 z"
     style="fill:#ff00ff;fill-opacity:1;stroke:none"
     sodipodi:nodetypes="cccc" />
  <path
     sodipodi:nodetypes="cccc"
     style="fill:#ff00ff;fill-opacity:1;stroke:none"
     d="m 13,-2 v 1 h 1 z"
     id="path860"
     inkscape:connector-curvature="0" />
  <path
     sodipodi:nodetypes="cccc"
     style="fill:#ff00ff;fill-opacity:1;stroke:none"
     d="m 16,-2 -1,0 v 1 z"
     id="path864"
     inkscape:connector-curvature="0" />
  <path
     inkscape:connector-curvature="0"
     id="path866"
     d="m 18,-1 v -1 l -1,0 z"
     style="fill:#ff00ff;fill-opacity:1;stroke:none"
     sodipodi:nodetypes="cccc" />
  <path
     style="fill:#ff0000;fill-opacity:1;stroke:none;stroke-width:2.23606801"
     d="m 2,10 v 1 h 5 v -1 z"
     id="path1650"
     inkscape:connector-curvature="0" />
  <path
     style="fill:#800080;fill-opacity:1;stroke:none;stroke-width:0.70710677"
     d="m -1.5,-2 v 1 H -1 v -1 z"
     id="path75-3"
     inkscape:connector-curvature="0" />
</svg>
