<?xml version="1.0" encoding="UTF-8" standalone="no"?>
<svg
   xmlns:dc="http://purl.org/dc/elements/1.1/"
   xmlns:cc="http://creativecommons.org/ns#"
   xmlns:rdf="http://www.w3.org/1999/02/22-rdf-syntax-ns#"
   xmlns:svg="http://www.w3.org/2000/svg"
   xmlns="http://www.w3.org/2000/svg"
   xmlns:sodipodi="http://sodipodi.sourceforge.net/DTD/sodipodi-0.dtd"
   xmlns:inkscape="http://www.inkscape.org/namespaces/inkscape"
   viewBox="0 0 16 16"
   version="1.1"
   id="svg6"
   sodipodi:docname="file_orange_broken.svg"
   inkscape:version="1.0.2 (e86c870, 2021-01-15)"
   width="32"
   height="32">
  <metadata
     id="metadata10">
    <rdf:RDF>
      <cc:Work
         rdf:about="">
        <dc:format>image/svg+xml</dc:format>
        <dc:type
           rdf:resource="http://purl.org/dc/dcmitype/StillImage" />
        <dc:title></dc:title>
      </cc:Work>
    </rdf:RDF>
  </metadata>
  <sodipodi:namedview
     pagecolor="#ffffff"
     bordercolor="#666666"
     borderopacity="1"
     objecttolerance="10"
     gridtolerance="10"
     guidetolerance="10"
     inkscape:pageopacity="0"
     inkscape:pageshadow="2"
     inkscape:window-width="1912"
     inkscape:window-height="2056"
     id="namedview8"
     showgrid="false"
     inkscape:snap-page="true"
     inkscape:zoom="4"
     inkscape:cx="4.438692"
     inkscape:cy="69.357824"
     inkscape:window-x="2147"
     inkscape:window-y="0"
     inkscape:window-maximized="0"
     inkscape:current-layer="svg6"
     inkscape:document-rotation="0" />
  <defs
     id="defs3051">
    <style
       type="text/css"
       id="current-color-scheme">
      .ColorScheme-Text {
        color:#232629;
      }
      </style>
  </defs>
  <path
     id="path8"
     style="fill:#ffdf80;fill-opacity:1;stroke:none;stroke-width:1px;stroke-linecap:butt;stroke-linejoin:miter;stroke-opacity:1"
     d="M 8 6 L 8 15 L 9 14 L 11 16 L 13 14 L 15 16 L 17 14 L 19 16 L 21 14 L 22 15 L 22 6 L 20 6 L 8 6 z M 9 16 L 8 17 L 8 26 L 16 26 L 16 20 L 22 20 L 22 17 L 21 16 L 19 18 L 17 16 L 15 18 L 13 16 L 11 18 L 9 16 z "
     transform="scale(0.5)" />
  <path
     id="path37"
     style="fill:#cc8700;fill-opacity:1;stroke:none;stroke-width:2"
     d="M 8 4 C 6.9 4 6 4.9 6 6 L 6 13 L 6 15 L 7 16 L 8 15 L 9 14 L 11 16 L 13 14 L 15 16 L 17 14 L 19 16 L 21 14 L 22 15 L 23 16 L 24 15 L 24 13 L 24 6 C 24 4.9 23.1 4 22 4 L 20 4 L 8 4 z M 8 6 L 20 6 L 22 6 L 22 13 L 21 12 L 19 14 L 17 12 L 15 14 L 13 12 L 11 14 L 9 12 L 8 13 L 8 6 z M 9 16 L 8 17 L 7 18 L 6 17 L 6 19 L 6 26 C 6 27.1 6.9 28 8 28 L 16 28 L 18 28 L 24 22 L 24 20 L 24 19 L 24 17 L 23 18 L 22 17 L 21 16 L 19 18 L 17 16 L 15 18 L 13 16 L 11 18 L 9 16 z M 9 18 L 11 20 L 13 18 L 15 20 L 17 18 L 19 20 L 21 18 L 22 19 L 22 20 L 19 20 L 16 20 L 16 26 L 8 26 L 8 19 L 9 18 z "
     transform="scale(0.5)" />
</svg>
