<?xml version="1.0" encoding="UTF-8" standalone="no"?>
<svg
   viewBox="0 0 16 16"
   version="1.1"
   id="svg5"
   sodipodi:docname="bulicommander.svg"
   inkscape:version="1.1 (c4e8f9e, 2021-05-24)"
   width="32"
   height="32"
   xmlns:inkscape="http://www.inkscape.org/namespaces/inkscape"
   xmlns:sodipodi="http://sodipodi.sourceforge.net/DTD/sodipodi-0.dtd"
   xmlns="http://www.w3.org/2000/svg"
   xmlns:svg="http://www.w3.org/2000/svg"
   xmlns:rdf="http://www.w3.org/1999/02/22-rdf-syntax-ns#"
   xmlns:cc="http://creativecommons.org/ns#"
   xmlns:dc="http://purl.org/dc/elements/1.1/">
  <metadata
     id="metadata9">
    <rdf:RDF>
      <cc:Work
         rdf:about="">
        <dc:format>image/svg+xml</dc:format>
        <dc:type
           rdf:resource="http://purl.org/dc/dcmitype/StillImage" />
      </cc:Work>
    </rdf:RDF>
  </metadata>
  <sodipodi:namedview
     pagecolor="#ffffff"
     bordercolor="#666666"
     borderopacity="1"
     objecttolerance="10"
     gridtolerance="10"
     guidetolerance="10"
     inkscape:pageopacity="0"
     inkscape:pageshadow="2"
     inkscape:window-width="2263"
     inkscape:window-height="1965"
     id="namedview7"
     showgrid="true"
     inkscape:zoom="22.627417"
     inkscape:cx="31.731417"
     inkscape:cy="20.970135"
     inkscape:window-x="3380"
     inkscape:window-y="55"
     inkscape:window-maximized="0"
     inkscape:current-layer="svg5"
     inkscape:snap-bbox="true"
     inkscape:bbox-nodes="true"
     inkscape:snap-page="true"
     inkscape:document-rotation="0"
     inkscape:snap-bbox-edge-midpoints="true"
     inkscape:snap-grids="true"
     inkscape:object-nodes="true"
     inkscape:pagecheckerboard="0">
    <inkscape:grid
       type="xygrid"
       id="grid828" />
  </sodipodi:namedview>
  <defs
     id="defs3051">
    <style
       type="text/css"
       id="current-color-scheme">
      .ColorScheme-Text {
        color:#232629;
      }
      </style>
  </defs>
  <g
     id="g1947"
     style="opacity:1;fill:#ffffff">
    <path
       id="path822"
       style="fill:#ffffff;fill-opacity:1;stroke:none;stroke-width:7.48332"
       d="M 1.9492188 0 C 0.87272665 0.0275174 4.4408921e-16 0.9171874 0 2 L 0 30 C 0 31.1 0.9 32 2 32 L 15 32 L 17 32 L 30 32 C 31.1 32 32 31.1 32 30 L 32 2 C 32 0.9 31.1 0 30 0 L 2 0 C 1.9828 0 1.9663008 -0.0004368 1.9492188 0 z M 2 2 L 30 2 L 30 4 L 2 4 L 2 2 z M 2 6 L 15 6 L 15 16 L 2 16 L 2 6 z M 17 6 L 30 6 L 30 16 L 17 16 L 17 6 z M 4 8 L 4 10 L 13 10 L 13 8 L 4 8 z M 19 8 L 19 10 L 28 10 L 28 8 L 19 8 z M 4 12 L 4 14 L 13 14 L 13 12 L 4 12 z M 19 12 L 19 14 L 28 14 L 28 12 L 19 12 z M 2 18 L 15 18 L 15 30 L 2 30 L 2 18 z M 17 18 L 30 18 L 30 30 L 17 30 L 17 18 z M 6.3007812 19.099609 C 5.0857542 19.099609 4.0996094 20.085755 4.0996094 21.300781 C 4.0996094 22.515807 5.0857543 23.5 6.3007812 23.5 C 7.5158071 23.5 8.5 22.515807 8.5 21.300781 C 8.5 20.085755 7.5158071 19.099609 6.3007812 19.099609 z M 21.300781 19.099609 C 20.085755 19.099609 19.099609 20.085755 19.099609 21.300781 C 19.099609 22.515807 20.085755 23.5 21.300781 23.5 C 22.515807 23.5 23.5 22.515807 23.5 21.300781 C 23.5 20.085755 22.515807 19.099609 21.300781 19.099609 z M 11.800781 22.400391 L 8.1210938 26.078125 L 6.6445312 24.599609 L 6.609375 24.599609 L 3 28.208984 L 3 29 L 14 29 L 14 24.599609 L 11.800781 22.400391 z M 26.800781 22.400391 L 23.121094 26.078125 L 21.644531 24.599609 L 21.609375 24.599609 L 18 28.208984 L 18 29 L 29 29 L 29 24.599609 L 26.800781 22.400391 z "
       transform="scale(0.5)" />
    <path
       style="fill:#ffffff;fill-opacity:0.5;stroke:none;stroke-width:3.74166"
       d="M 1,1 V 2 H 15 V 1 Z"
       id="path822-7"
       inkscape:connector-curvature="0" />
  </g>
</svg>
