<?xml version="1.0" encoding="UTF-8" standalone="no"?>
<svg
   xmlns:dc="http://purl.org/dc/elements/1.1/"
   xmlns:cc="http://creativecommons.org/ns#"
   xmlns:rdf="http://www.w3.org/1999/02/22-rdf-syntax-ns#"
   xmlns:svg="http://www.w3.org/2000/svg"
   xmlns="http://www.w3.org/2000/svg"
   xmlns:sodipodi="http://sodipodi.sourceforge.net/DTD/sodipodi-0.dtd"
   xmlns:inkscape="http://www.inkscape.org/namespaces/inkscape"
   viewBox="0 0 16 16"
   version="1.1"
   id="svg9"
   sodipodi:docname="visibility_off.svg"
   inkscape:version="0.92.4 (5da689c313, 2019-01-14)"
   width="32"
   height="32">
  <metadata
     id="metadata13">
    <rdf:RDF>
      <cc:Work
         rdf:about="">
        <dc:format>image/svg+xml</dc:format>
        <dc:type
           rdf:resource="http://purl.org/dc/dcmitype/StillImage" />
        <dc:title />
      </cc:Work>
    </rdf:RDF>
  </metadata>
  <sodipodi:namedview
     pagecolor="#ffffff"
     bordercolor="#666666"
     borderopacity="1"
     objecttolerance="10"
     gridtolerance="10"
     guidetolerance="10"
     inkscape:pageopacity="0"
     inkscape:pageshadow="2"
     inkscape:window-width="1912"
     inkscape:window-height="2056"
     id="namedview11"
     showgrid="false"
     inkscape:snap-page="true"
     inkscape:snap-bbox="true"
     inkscape:snap-bbox-midpoints="false"
     inkscape:bbox-nodes="true"
     inkscape:snap-bbox-edge-midpoints="false"
     inkscape:zoom="11.313709"
     inkscape:cx="12.269656"
     inkscape:cy="-20.402192"
     inkscape:window-x="3840"
     inkscape:window-y="0"
     inkscape:window-maximized="0"
     inkscape:current-layer="svg9" />
  <defs
     id="defs3051">
    <style
       type="text/css"
       id="current-color-scheme">
      .ColorScheme-Text {
        color:#232629;
      }
      </style>
  </defs>
  <path
     style="color:#232629;fill:#ffffff;fill-opacity:1;stroke:none;stroke-width:1"
     d="M 2.7070313,2.3427733 2,3.0498047 3.7792969,4.8291017 A 7.996028,7.7111935 0 0 0 1,7.6357422 7.996028,7.7111935 0 0 0 7.998047,11.635742 7.996028,7.7111935 0 0 0 10.260742,11.310547 l 2.34668,2.34668 0.707031,-0.707032 L 11.302735,10.938477 10.119141,9.7548828 9.4121095,9.0478518 6.5859375,6.2216797 5.878906,5.5146483 4.7070312,4.3427733 Z m 5.2539062,1.2929689 -0.265625,0.015625 -0.1347655,0.00781 a 7.996028,7.7111935 0 0 0 -1.8125,0.310547 l 0.958984,0.958987 A 2.9999996,3.0000002 0 0 1 8,4.6337892 a 2.9999996,3.0000002 0 0 1 3,3 2.9999996,3.0000002 0 0 1 -0.296875,1.2910156 L 11.44336,9.6650393 A 3.9999996,4.0000004 0 0 0 12,7.6337892 a 3.9999996,4.0000004 0 0 0 -0.791015,-2.375 7.1075805,6.8543945 0 0 1 2.738281,2.376953 7.1075805,6.8543945 0 0 1 -2.363281,2.1699221 l 0.648437,0.6484377 A 7.996028,7.7111935 0 0 0 15,7.6455077 L 14.9922,7.6357377 15,7.6279297 a 7.996028,7.7111935 0 0 0 -7.001953,-3.9921875 7.996028,7.7111935 0 0 0 -0.017578,0 z m -3.5488281,1.826172 0.1445312,0.144531 A 3.9999996,4.0000004 0 0 0 4,7.6337892 3.9999996,4.0000004 0 0 0 4.7988281,10.024414 7.1075805,6.8543945 0 0 1 2.0429688,7.6357422 7.1075805,6.8543945 0 0 1 4.4121094,5.4619142 Z M 8,5.6337892 a 1.9999999,2.0000003 0 0 0 -0.517578,0.070312 l 0.582031,0.582031 A 0.9999999,1 0 0 1 8.589844,5.7255862 1.9999999,2.0000003 0 0 0 8,5.6337892 Z m -2.7041015,0.711914 0.774414,0.774414 A 1.9999999,2.0000003 0 0 0 6,7.6337892 1.9999999,2.0000003 0 0 0 8,9.6337893 1.9999999,2.0000003 0 0 0 8.513672,9.5634768 L 9.2890625,10.338867 A 2.9999996,3.0000002 0 0 1 8,10.635742 2.9999996,3.0000002 0 0 1 5,7.6337892 2.9999996,3.0000002 0 0 1 5.2958985,6.3457032 Z M 9.910156,7.0458983 A 0.9999999,1 0 0 1 9.3496095,7.5712892 l 0.582031,0.5820311 A 1.9999999,2.0000003 0 0 0 10,7.6337892 1.9999999,2.0000003 0 0 0 9.910156,7.0458983 Z"
     id="rect4170"
     inkscape:connector-curvature="0" />
</svg>
