<?xml version="1.0" encoding="UTF-8" standalone="no"?>
<svg
   xmlns:dc="http://purl.org/dc/elements/1.1/"
   xmlns:cc="http://creativecommons.org/ns#"
   xmlns:rdf="http://www.w3.org/1999/02/22-rdf-syntax-ns#"
   xmlns:svg="http://www.w3.org/2000/svg"
   xmlns="http://www.w3.org/2000/svg"
   xmlns:sodipodi="http://sodipodi.sourceforge.net/DTD/sodipodi-0.dtd"
   xmlns:inkscape="http://www.inkscape.org/namespaces/inkscape"
   viewBox="0 0 16 16"
   version="1.1"
   id="svg10"
   sodipodi:docname="bookmark_clear.svg"
   inkscape:version="0.92.4 (5da689c313, 2019-01-14)">
  <metadata
     id="metadata14">
    <rdf:RDF>
      <cc:Work
         rdf:about="">
        <dc:format>image/svg+xml</dc:format>
        <dc:type
           rdf:resource="http://purl.org/dc/dcmitype/StillImage" />
        <dc:title />
      </cc:Work>
    </rdf:RDF>
  </metadata>
  <sodipodi:namedview
     pagecolor="#ffffff"
     bordercolor="#666666"
     borderopacity="1"
     objecttolerance="10"
     gridtolerance="10"
     guidetolerance="10"
     inkscape:pageopacity="0"
     inkscape:pageshadow="2"
     inkscape:window-width="1579"
     inkscape:window-height="1642"
     id="namedview12"
     showgrid="false"
     inkscape:zoom="59"
     inkscape:cx="10.942238"
     inkscape:cy="5.3839142"
     inkscape:window-x="3566"
     inkscape:window-y="255"
     inkscape:window-maximized="0"
     inkscape:current-layer="svg10"
     inkscape:snap-page="true" />
  <defs
     id="defs3051">
    <style
       type="text/css"
       id="current-color-scheme">
      .ColorScheme-Text {
        color:#232629;
      }
      .ColorScheme-NegativeText {
        color:#da4453;
      }
      </style>
  </defs>
  <path
     style="color:#232629;fill:#ffffff;fill-opacity:1;stroke:none"
     d="m 6.0000001,1 c -0.55,0 -1,0.45 -1,1 h 1 H 7.4414063 12 v 7 h 1 V 2 C 13,1.45 12.55,1 12,1 Z m -2,2 c -0.55,0 -1,0.45 -1,1 v 11 l 4,-1.59375 v -1 l -3,1.1875 V 4 H 10 v 5 h 1 V 4 C 11,3.45 10.55,3 10,3 Z m 4.7109375,7.029297 -0.7070313,0.707031 1.7929688,1.792969 -1.7929688,1.792969 0.7070313,0.707031 1.7929684,-1.792969 1.792969,1.792969 0.707031,-0.707031 -1.792968,-1.792969 1.792968,-1.792969 -0.707031,-0.707031 -1.792969,1.792969 z"
     id="path4-5"
     inkscape:connector-curvature="0" />
</svg>
