<?xml version="1.0" encoding="UTF-8" standalone="no"?>
<svg
   xmlns:dc="http://purl.org/dc/elements/1.1/"
   xmlns:cc="http://creativecommons.org/ns#"
   xmlns:rdf="http://www.w3.org/1999/02/22-rdf-syntax-ns#"
   xmlns:svg="http://www.w3.org/2000/svg"
   xmlns="http://www.w3.org/2000/svg"
   xmlns:sodipodi="http://sodipodi.sourceforge.net/DTD/sodipodi-0.dtd"
   xmlns:inkscape="http://www.inkscape.org/namespaces/inkscape"
   viewBox="0 0 16 16"
   version="1.1"
   id="svg6"
   sodipodi:docname="cached.svg"
   inkscape:version="0.92.4 (5da689c313, 2019-01-14)">
  <metadata
     id="metadata10">
    <rdf:RDF>
      <cc:Work
         rdf:about="">
        <dc:format>image/svg+xml</dc:format>
        <dc:type
           rdf:resource="http://purl.org/dc/dcmitype/StillImage" />
        <dc:title />
      </cc:Work>
    </rdf:RDF>
  </metadata>
  <sodipodi:namedview
     pagecolor="#ffffff"
     bordercolor="#666666"
     borderopacity="1"
     objecttolerance="10"
     gridtolerance="10"
     guidetolerance="10"
     inkscape:pageopacity="0"
     inkscape:pageshadow="2"
     inkscape:window-width="1912"
     inkscape:window-height="2056"
     id="namedview8"
     showgrid="false"
     inkscape:zoom="83.4386"
     inkscape:cx="11.084138"
     inkscape:cy="9.648721"
     inkscape:window-x="3840"
     inkscape:window-y="0"
     inkscape:window-maximized="0"
     inkscape:current-layer="svg6" />
  <defs
     id="defs3051">
    <style
       type="text/css"
       id="current-color-scheme">
      .ColorScheme-Text {
        color:#232629;
      }
      </style>
  </defs>
  <path
     style="color:#232629;fill:#ffffff;fill-opacity:1;stroke:none"
     d="M 8 2 C 6.464466 2.0000002 4.9293849 2.5862402 3.7578125 3.7578125 C 3.5572833 3.9583417 3.3753625 4.1698212 3.2109375 4.390625 L 3.2109375 2.6972656 L 2.2109375 2.6972656 L 2.2109375 6.4980469 L 3.0058594 6.4980469 L 3.2109375 6.4980469 L 3.2714844 6.4980469 L 6.0117188 6.4980469 L 6.0117188 5.4804688 L 3.7128906 5.4804688 C 3.8148907 5.3062163 3.9200444 5.1361194 4.0449219 4.9726562 C 4.0764719 4.9300923 4.0996465 4.8815902 4.1328125 4.8398438 C 4.2395965 4.708919 4.3428049 4.5868825 4.4648438 4.4648438 C 6.4174654 2.5122222 9.5825344 2.5122221 11.535156 4.4648438 C 11.707 4.6366876 11.85915 4.8285742 12 5.0175781 C 12.08223 5.1280312 12.170251 5.2322842 12.242188 5.3476562 C 12.39749 5.5976408 12.512882 5.8527616 12.619141 6.1210938 C 12.631451 6.1521688 12.650459 6.1796665 12.662109 6.2109375 C 12.697959 6.3047135 12.701176 6.4028265 12.728516 6.4980469 C 12.731016 6.5068769 12.74726 6.5106723 12.75 6.5195312 L 13.789062 6.4980469 C 13.529726 5.4970698 13.026239 4.5418652 12.242188 3.7578125 C 11.070614 2.5862394 9.535534 1.9999998 8 2 z M 3.25 9.4804688 L 2.2109375 9.5019531 C 2.4702779 10.502931 2.9737598 11.458134 3.7578125 12.242188 C 6.1009586 14.585333 9.8990428 14.585332 12.242188 12.242188 C 12.442717 12.041658 12.624637 11.830179 12.789062 11.609375 L 12.789062 13.302734 L 13.789062 13.302734 L 13.789062 9.5019531 L 12.994141 9.5019531 L 12.728516 9.5019531 L 10.011719 9.5253906 L 10.011719 10.496094 L 12.287109 10.519531 C 12.185109 10.693783 12.079955 10.863881 11.955078 11.027344 C 11.923528 11.069904 11.900358 11.118414 11.867188 11.160156 C 11.760404 11.291081 11.657195 11.413117 11.535156 11.535156 C 11.413117 11.657195 11.291081 11.760404 11.160156 11.867188 C 11.029232 11.973971 10.900344 12.084252 10.761719 12.175781 C 8.8209616 13.457186 6.1733876 13.2437 4.4648438 11.535156 C 4.2892956 11.359608 4.1439832 11.175819 4 10.982422 C 3.9177678 10.871968 3.8297488 10.767716 3.7578125 10.652344 C 3.6025097 10.40236 3.4871181 10.147239 3.3808594 9.8789062 C 3.3683257 9.8479982 3.3497806 9.8201654 3.3378906 9.7890625 C 3.3037783 9.6975071 3.2980905 9.5959292 3.2714844 9.5019531 L 3.25 9.4804688 z "
     id="path4" />
</svg>
