<?xml version="1.0" encoding="UTF-8" standalone="no"?>
<svg
   xmlns:dc="http://purl.org/dc/elements/1.1/"
   xmlns:cc="http://creativecommons.org/ns#"
   xmlns:rdf="http://www.w3.org/1999/02/22-rdf-syntax-ns#"
   xmlns:svg="http://www.w3.org/2000/svg"
   xmlns="http://www.w3.org/2000/svg"
   xmlns:sodipodi="http://sodipodi.sourceforge.net/DTD/sodipodi-0.dtd"
   xmlns:inkscape="http://www.inkscape.org/namespaces/inkscape"
   viewBox="0 0 16 16"
   version="1.1"
   id="svg6"
   sodipodi:docname="file_rename.svg"
   inkscape:version="0.92.4 (5da689c313, 2019-01-14)">
  <metadata
     id="metadata10">
    <rdf:RDF>
      <cc:Work
         rdf:about="">
        <dc:format>image/svg+xml</dc:format>
        <dc:type
           rdf:resource="http://purl.org/dc/dcmitype/StillImage" />
        <dc:title />
      </cc:Work>
    </rdf:RDF>
  </metadata>
  <sodipodi:namedview
     pagecolor="#ffffff"
     bordercolor="#666666"
     borderopacity="1"
     objecttolerance="10"
     gridtolerance="10"
     guidetolerance="10"
     inkscape:pageopacity="0"
     inkscape:pageshadow="2"
     inkscape:window-width="1916"
     inkscape:window-height="1629"
     id="namedview8"
     showgrid="false"
     inkscape:snap-page="true"
     inkscape:zoom="64"
     inkscape:cx="9.2998391"
     inkscape:cy="5.6143801"
     inkscape:window-x="3589"
     inkscape:window-y="242"
     inkscape:window-maximized="0"
     inkscape:current-layer="svg6" />
  <defs
     id="defs3051">
    <style
       type="text/css"
       id="current-color-scheme">
      .ColorScheme-Text {
        color:#232629;
      }
      </style>
  </defs>
  <path
     style="fill:#ffffff;fill-opacity:1;stroke:none"
     d="M 4 2 C 3.45 2 3 2.45 3 3 L 3 13 C 3 13.55 3.45 14 4 14 L 8 14 L 9 14 L 12 11 L 12 10 L 12 8 L 11 8 L 11 10 L 8.0058594 10 L 8 10 L 8 13 L 4 13 L 4 3 L 10 3 L 10 2 L 4 2 z M 8 10 L 8.0019531 9.9980469 L 8.0058594 10 L 8.7070312 9.296875 L 8.703125 9.2929688 L 12.828125 5.1582031 L 13.535156 4.4511719 L 11.539062 2.4609375 L 10.539062 3.4570312 L 10.541016 3.4589844 L 6 8 L 6 10 L 8 10 z M 11.236328 4.1503906 L 11.818359 4.7324219 L 11.84375 4.7558594 L 8.0058594 8.59375 L 7.3027344 9.296875 L 7.3007812 9.3007812 L 7.28125 9.28125 L 6.6992188 8.6992188 L 11.236328 4.1503906 z "
     id="path37" />
</svg>
