<?xml version="1.0" encoding="UTF-8" standalone="no"?>
<svg
   xmlns:dc="http://purl.org/dc/elements/1.1/"
   xmlns:cc="http://creativecommons.org/ns#"
   xmlns:rdf="http://www.w3.org/1999/02/22-rdf-syntax-ns#"
   xmlns:svg="http://www.w3.org/2000/svg"
   xmlns="http://www.w3.org/2000/svg"
   xmlns:sodipodi="http://sodipodi.sourceforge.net/DTD/sodipodi-0.dtd"
   xmlns:inkscape="http://www.inkscape.org/namespaces/inkscape"
   viewBox="0 0 16 16"
   version="1.1"
   id="svg5"
   sodipodi:docname="select_invert.svg"
   inkscape:version="0.92.4 (5da689c313, 2019-01-14)">
  <metadata
     id="metadata9">
    <rdf:RDF>
      <cc:Work
         rdf:about="">
        <dc:format>image/svg+xml</dc:format>
        <dc:type
           rdf:resource="http://purl.org/dc/dcmitype/StillImage" />
        <dc:title />
      </cc:Work>
    </rdf:RDF>
  </metadata>
  <sodipodi:namedview
     pagecolor="#ffffff"
     bordercolor="#666666"
     borderopacity="1"
     objecttolerance="10"
     gridtolerance="10"
     guidetolerance="10"
     inkscape:pageopacity="0"
     inkscape:pageshadow="2"
     inkscape:window-width="1912"
     inkscape:window-height="2056"
     id="namedview7"
     showgrid="false"
     inkscape:zoom="41.7193"
     inkscape:cx="7.1731112"
     inkscape:cy="7.4288816"
     inkscape:window-x="3840"
     inkscape:window-y="0"
     inkscape:window-maximized="0"
     inkscape:current-layer="svg5"
     inkscape:snap-bbox="true"
     inkscape:bbox-nodes="true"
     inkscape:snap-page="true" />
  <defs
     id="defs3051">
    <style
       type="text/css"
       id="current-color-scheme">
      .ColorScheme-Text {
        color:#232629;
      }
      </style>
  </defs>
  <path
     style="fill:#ffffff;fill-opacity:1;stroke:none;stroke-width:16"
     d="M 0 0 L 0 16 L 2 14 L 1 14 L 1 13 L 2 13 L 2 14 L 3 13 L 3 12 L 3 4 L 3 3 L 4 3 L 12 3 L 13 3 L 14 2 L 13 2 L 13 1 L 14 1 L 14 2 L 16 0 L 0 0 z M 14 2 L 14 3 L 15 3 L 15 2 L 14 2 z M 13 3 L 12 4 L 12 12 L 4 12 L 3 13 L 13 13 L 13 12 L 13 4 L 13 3 z M 4 12 L 12 4 L 4 4 L 4 12 z M 2 14 L 2 15 L 3 15 L 3 14 L 2 14 z M 2 1 L 2 2 L 1 2 C 1 1.45 1.45 1 2 1 z M 3 1 L 4 1 L 4 2 L 3 2 L 3 1 z M 5 1 L 6 1 L 6 2 L 5 2 L 5 1 z M 7 1 L 8 1 L 8 2 L 7 2 L 7 1 z M 9 1 L 10 1 L 10 2 L 9 2 L 9 1 z M 11 1 L 12 1 L 12 2 L 11 2 L 11 1 z M 1 3 L 2 3 L 2 4 L 1 4 L 1 3 z M 14 4 L 14 5 L 15 5 L 15 4 L 14 4 z M 1 5 L 2 5 L 2 6 L 1 6 L 1 5 z M 14 6 L 14 7 L 15 7 L 15 6 L 14 6 z M 1 7 L 2 7 L 2 8 L 1 8 L 1 7 z M 14 8 L 14 9 L 15 9 L 15 8 L 14 8 z M 1 9 L 2 9 L 2 10 L 1 10 L 1 9 z M 14 10 L 14 11 L 15 11 L 15 10 L 14 10 z M 1 11 L 2 11 L 2 12 L 1 12 L 1 11 z M 14 12 L 14 13 L 15 13 L 15 12 L 14 12 z M 4 14 L 4 15 L 5 15 L 5 14 L 4 14 z M 6 14 L 6 15 L 7 15 L 7 14 L 6 14 z M 8 14 L 8 15 L 9 15 L 9 14 L 8 14 z M 10 14 L 10 15 L 11 15 L 11 14 L 10 14 z M 12 14 L 12 15 L 13 15 L 13 14 L 12 14 z M 14 14 L 14 15 C 14.55 15 15 14.55 15 14 L 14 14 z "
     id="path864" />
</svg>
