<?xml version="1.0" encoding="UTF-8" standalone="no"?>
<svg
   xmlns:dc="http://purl.org/dc/elements/1.1/"
   xmlns:cc="http://creativecommons.org/ns#"
   xmlns:rdf="http://www.w3.org/1999/02/22-rdf-syntax-ns#"
   xmlns:svg="http://www.w3.org/2000/svg"
   xmlns="http://www.w3.org/2000/svg"
   xmlns:sodipodi="http://sodipodi.sourceforge.net/DTD/sodipodi-0.dtd"
   xmlns:inkscape="http://www.inkscape.org/namespaces/inkscape"
   viewBox="0 0 16 16"
   version="1.1"
   id="svg10"
   sodipodi:docname="bookmark_remove.svg"
   inkscape:version="0.92.4 (5da689c313, 2019-01-14)">
  <metadata
     id="metadata14">
    <rdf:RDF>
      <cc:Work
         rdf:about="">
        <dc:format>image/svg+xml</dc:format>
        <dc:type
           rdf:resource="http://purl.org/dc/dcmitype/StillImage" />
        <dc:title></dc:title>
      </cc:Work>
    </rdf:RDF>
  </metadata>
  <sodipodi:namedview
     pagecolor="#ffffff"
     bordercolor="#666666"
     borderopacity="1"
     objecttolerance="10"
     gridtolerance="10"
     guidetolerance="10"
     inkscape:pageopacity="0"
     inkscape:pageshadow="2"
     inkscape:window-width="1595"
     inkscape:window-height="1642"
     id="namedview12"
     showgrid="false"
     inkscape:zoom="59"
     inkscape:cx="6.3878555"
     inkscape:cy="9.6524201"
     inkscape:window-x="3566"
     inkscape:window-y="255"
     inkscape:window-maximized="0"
     inkscape:current-layer="svg10" />
  <defs
     id="defs3051">
    <style
       type="text/css"
       id="current-color-scheme">
      .ColorScheme-Text {
        color:#232629;
      }
      .ColorScheme-NegativeText {
        color:#da4453;
      }
      </style>
  </defs>
  <path
     style="color:#232629;fill:#000000;fill-opacity:1;stroke:none"
     d="M 5 2 C 4.45 2 4 2.45 4 3 L 4 14 L 8 12.40625 L 8 11.40625 L 5 12.59375 L 5 3 L 11 3 L 11 8 L 12 8 L 12 3 C 12 2.45 11.55 2 11 2 L 5 2 z M 9.7109375 9.0292969 L 9.0039062 9.7363281 L 10.796875 11.529297 L 9.0039062 13.322266 L 9.7109375 14.029297 L 11.503906 12.236328 L 13.296875 14.029297 L 14.003906 13.322266 L 12.210938 11.529297 L 14.003906 9.7363281 L 13.296875 9.0292969 L 11.503906 10.822266 L 9.7109375 9.0292969 z "
     id="path4" />
</svg>
