<?xml version="1.0" encoding="UTF-8" standalone="no"?>
<svg
   xmlns:dc="http://purl.org/dc/elements/1.1/"
   xmlns:cc="http://creativecommons.org/ns#"
   xmlns:rdf="http://www.w3.org/1999/02/22-rdf-syntax-ns#"
   xmlns:svg="http://www.w3.org/2000/svg"
   xmlns="http://www.w3.org/2000/svg"
   xmlns:sodipodi="http://sodipodi.sourceforge.net/DTD/sodipodi-0.dtd"
   xmlns:inkscape="http://www.inkscape.org/namespaces/inkscape"
   viewBox="0 0 16 16"
   version="1.1"
   id="svg6"
   sodipodi:docname="exit_to_app.svg"
   inkscape:version="0.92.4 (5da689c313, 2019-01-14)">
  <metadata
     id="metadata10">
    <rdf:RDF>
      <cc:Work
         rdf:about="">
        <dc:format>image/svg+xml</dc:format>
        <dc:type
           rdf:resource="http://purl.org/dc/dcmitype/StillImage" />
        <dc:title></dc:title>
      </cc:Work>
    </rdf:RDF>
  </metadata>
  <sodipodi:namedview
     pagecolor="#ffffff"
     bordercolor="#666666"
     borderopacity="1"
     objecttolerance="10"
     gridtolerance="10"
     guidetolerance="10"
     inkscape:pageopacity="0"
     inkscape:pageshadow="2"
     inkscape:window-width="1912"
     inkscape:window-height="2056"
     id="namedview8"
     showgrid="false"
     inkscape:zoom="59"
     inkscape:cx="8.1225263"
     inkscape:cy="6.3922138"
     inkscape:window-x="3840"
     inkscape:window-y="0"
     inkscape:window-maximized="0"
     inkscape:current-layer="svg6"
     inkscape:snap-text-baseline="false"
     inkscape:snap-page="true" />
  <defs
     id="defs3051">
    <style
       type="text/css"
       id="current-color-scheme">
      .ColorScheme-Text {
        color:#232629;
      }
      .ColorScheme-NegativeText {
        color:#da4453;
      }
      </style>
  </defs>
  <path
     style="fill:#000000;fill-opacity:1;stroke:none"
     d="M 3 2 C 2.45 2 2 2.45 2 3 L 2 13 C 2 13.55 2.45 14 3 14 L 13 14 C 13.55 14 14 13.55 14 13 L 14 11 L 13 11 L 13 13 L 3 13 L 3 5 L 3 4 L 12 4 L 13 4 L 13 5 L 13 6 L 14 6 L 14 3 C 14 2.45 13.55 2 13 2 L 3 2 z "
     id="path66" />
  <path
     style="fill:#000000;fill-opacity:1;stroke:none;stroke-width:2.82842731"
     d="M 10 5 L 10 6 L 10 7 L 6 7 L 6 8 L 6 9 L 6 10 L 10 10 L 10 11 L 10 12 L 11 11 L 12 10 L 13 9 L 13.5 8.5 L 13 8 L 12 7 L 11 6 L 10 5 z "
     id="path775" />
</svg>
