<?xml version="1.0" encoding="UTF-8" standalone="no"?>
<svg
   xmlns:dc="http://purl.org/dc/elements/1.1/"
   xmlns:cc="http://creativecommons.org/ns#"
   xmlns:rdf="http://www.w3.org/1999/02/22-rdf-syntax-ns#"
   xmlns:svg="http://www.w3.org/2000/svg"
   xmlns="http://www.w3.org/2000/svg"
   xmlns:sodipodi="http://sodipodi.sourceforge.net/DTD/sodipodi-0.dtd"
   xmlns:inkscape="http://www.inkscape.org/namespaces/inkscape"
   viewBox="0 0 16 16"
   version="1.1"
   id="svg5"
   sodipodi:docname="folder_open_new.svg"
   inkscape:version="0.92.4 (5da689c313, 2019-01-14)">
  <metadata
     id="metadata9">
    <rdf:RDF>
      <cc:Work
         rdf:about="">
        <dc:format>image/svg+xml</dc:format>
        <dc:type
           rdf:resource="http://purl.org/dc/dcmitype/StillImage" />
        <dc:title></dc:title>
      </cc:Work>
    </rdf:RDF>
  </metadata>
  <sodipodi:namedview
     pagecolor="#ffffff"
     bordercolor="#666666"
     borderopacity="1"
     objecttolerance="10"
     gridtolerance="10"
     guidetolerance="10"
     inkscape:pageopacity="0"
     inkscape:pageshadow="2"
     inkscape:window-width="1554"
     inkscape:window-height="1641"
     id="namedview7"
     showgrid="false"
     inkscape:zoom="29.5"
     inkscape:cx="20.986537"
     inkscape:cy="9.2263628"
     inkscape:window-x="3609"
     inkscape:window-y="257"
     inkscape:window-maximized="0"
     inkscape:current-layer="svg5"
     inkscape:snap-bbox="true"
     inkscape:snap-bbox-midpoints="true" />
  <defs
     id="defs3051">
    <style
       type="text/css"
       id="current-color-scheme">
      .ColorScheme-Text {
        color:#232629;
      }
      </style>
  </defs>
  <path
     style="fill:#000000;fill-opacity:1;stroke:none"
     d="M 10.683594 9.0839844 L 9.8164062 9.5839844 L 10.453125 10.685547 L 10.634766 11 L 9.7109375 11 L 9 11 L 9 12 L 10.271484 12 L 10.632812 12 L 10.171875 12.798828 L 9.8164062 13.416016 L 10.683594 13.916016 L 11.318359 12.814453 L 11.5 12.501953 L 12.316406 13.916016 L 13.183594 13.416016 L 13.046875 13.179688 L 12.365234 12 L 14 12 L 14 11 L 13.728516 11 L 12.367188 11 L 13.183594 9.5839844 L 12.316406 9.0839844 L 12.181641 9.3203125 L 11.5 10.498047 L 11.039062 9.7011719 L 10.683594 9.0839844 z "
     id="rect4182" />
  <path
     style="fill:#000000;fill-opacity:1;stroke:none"
     d="M 3,2 C 2.45,2 2,2.45 2,3 v 10 c 0,0.55 0.45,1 1,1 H 9 V 13 H 3 V 8 H 5 L 6.9980469,6 H 13 v 3 h 1 V 5 C 14,4.45 13.55,4 13,4 H 9.0078125 l -2,-2 L 7,2.0078125 V 2 Z"
     id="path10" />
</svg>
