<?xml version="1.0" encoding="UTF-8" standalone="no"?>
<svg
   xmlns:dc="http://purl.org/dc/elements/1.1/"
   xmlns:cc="http://creativecommons.org/ns#"
   xmlns:rdf="http://www.w3.org/1999/02/22-rdf-syntax-ns#"
   xmlns:svg="http://www.w3.org/2000/svg"
   xmlns="http://www.w3.org/2000/svg"
   xmlns:sodipodi="http://sodipodi.sourceforge.net/DTD/sodipodi-0.dtd"
   xmlns:inkscape="http://www.inkscape.org/namespaces/inkscape"
   viewBox="0 0 16 16"
   version="1.1"
   id="svg6"
   sodipodi:docname="history.svg"
   inkscape:version="0.92.4 (5da689c313, 2019-01-14)">
  <metadata
     id="metadata10">
    <rdf:RDF>
      <cc:Work
         rdf:about="">
        <dc:format>image/svg+xml</dc:format>
        <dc:type
           rdf:resource="http://purl.org/dc/dcmitype/StillImage" />
        <dc:title />
      </cc:Work>
    </rdf:RDF>
  </metadata>
  <sodipodi:namedview
     pagecolor="#ffffff"
     bordercolor="#666666"
     borderopacity="1"
     objecttolerance="10"
     gridtolerance="10"
     guidetolerance="10"
     inkscape:pageopacity="0"
     inkscape:pageshadow="2"
     inkscape:window-width="1912"
     inkscape:window-height="2056"
     id="namedview8"
     showgrid="false"
     inkscape:snap-bbox="true"
     inkscape:snap-bbox-midpoints="false"
     inkscape:zoom="64"
     inkscape:cx="8.299391"
     inkscape:cy="6.8670868"
     inkscape:window-x="3840"
     inkscape:window-y="0"
     inkscape:window-maximized="0"
     inkscape:current-layer="svg6"
     inkscape:snap-page="true"
     inkscape:snap-bbox-edge-midpoints="false"
     inkscape:bbox-nodes="true" />
  <defs
     id="defs3051">
    <style
       type="text/css"
       id="current-color-scheme">
      .ColorScheme-Text {
        color:#232629;
      }
      </style>
  </defs>
  <path
     style="fill:currentColor;fill-opacity:1;stroke:none"
     d="m 7.9921876,4 v 4 1 h 1 V 8 7.3164062 4 Z"
     id="path4" />
  <path
     style="fill:#000000;fill-opacity:1;stroke:none"
     d="M 8.9921875 2 C 5.678479 2 2.9921875 4.6862915 2.9921875 8 C 2.9921875 8.2833823 3.0142094 8.5613915 3.0527344 8.8339844 L 1.7148438 7.4960938 L 1.0078125 8.203125 L 3.1289062 10.324219 L 3.8066406 11.001953 C 3.8139306 11.014513 3.8187939 11.028516 3.8261719 11.041016 L 3.8359375 11.03125 L 4.5429688 10.324219 L 4.5742188 10.292969 L 6.6640625 8.203125 L 5.9570312 7.4960938 L 4.1738281 9.2792969 C 4.0592757 8.8717147 3.9921875 8.4454854 3.9921875 8 C 3.9921875 5.2385763 6.2307638 3 8.9921875 3 C 11.753611 3 13.992188 5.2385763 13.992188 8 C 13.992188 10.761424 11.753611 13 8.9921875 13 C 8.1598303 13 7.3876281 12.777758 6.6972656 12.417969 L 5.9492188 13.164062 C 6.8422045 13.691434 7.8800049 14 8.9921875 14 C 12.305895 14 14.992188 11.313708 14.992188 8 C 14.992188 4.6862915 12.305895 2 8.9921875 2 z M 7.9921875 4 L 7.9921875 8 L 7.9921875 9 L 8.9921875 9 L 11.992188 9 L 11.992188 8 L 8.9921875 8 L 8.9921875 7.3164062 L 8.9921875 4 L 7.9921875 4 z "
     id="path145" />
</svg>
