<?xml version="1.0" encoding="UTF-8" standalone="no"?>
<svg
   xmlns:dc="http://purl.org/dc/elements/1.1/"
   xmlns:cc="http://creativecommons.org/ns#"
   xmlns:rdf="http://www.w3.org/1999/02/22-rdf-syntax-ns#"
   xmlns:svg="http://www.w3.org/2000/svg"
   xmlns="http://www.w3.org/2000/svg"
   xmlns:sodipodi="http://sodipodi.sourceforge.net/DTD/sodipodi-0.dtd"
   xmlns:inkscape="http://www.inkscape.org/namespaces/inkscape"
   viewBox="0 0 16 16"
   version="1.1"
   id="svg9"
   sodipodi:docname="visibility_off.svg"
   inkscape:version="0.92.4 (5da689c313, 2019-01-14)">
  <metadata
     id="metadata13">
    <rdf:RDF>
      <cc:Work
         rdf:about="">
        <dc:format>image/svg+xml</dc:format>
        <dc:type
           rdf:resource="http://purl.org/dc/dcmitype/StillImage" />
        <dc:title></dc:title>
      </cc:Work>
    </rdf:RDF>
  </metadata>
  <sodipodi:namedview
     pagecolor="#ffffff"
     bordercolor="#666666"
     borderopacity="1"
     objecttolerance="10"
     gridtolerance="10"
     guidetolerance="10"
     inkscape:pageopacity="0"
     inkscape:pageshadow="2"
     inkscape:window-width="1912"
     inkscape:window-height="2056"
     id="namedview11"
     showgrid="false"
     inkscape:snap-page="true"
     inkscape:snap-bbox="true"
     inkscape:snap-bbox-midpoints="false"
     inkscape:bbox-nodes="true"
     inkscape:snap-bbox-edge-midpoints="false"
     inkscape:zoom="64"
     inkscape:cx="7.2213973"
     inkscape:cy="10.154053"
     inkscape:window-x="3840"
     inkscape:window-y="0"
     inkscape:window-maximized="0"
     inkscape:current-layer="svg9" />
  <defs
     id="defs3051">
    <style
       type="text/css"
       id="current-color-scheme">
      .ColorScheme-Text {
        color:#232629;
      }
      </style>
  </defs>
  <path
     style="color:#232629;fill:#000000;fill-opacity:1;stroke:none"
     d="M 7.9609375 4 L 7.6953125 4.015625 L 7.5605469 4.0234375 A 7.9960281 7.7111936 0 0 0 5.7480469 4.3339844 L 6.7070312 5.2929688 A 2.9999996 3.0000002 0 0 1 8 4.9980469 A 2.9999996 3.0000002 0 0 1 11 7.9980469 A 2.9999996 3.0000002 0 0 1 10.703125 9.2890625 L 11.443359 10.029297 A 3.9999996 4.0000004 0 0 0 12 7.9980469 A 3.9999996 4.0000004 0 0 0 11.208984 5.6230469 A 7.1075806 6.8543943 0 0 1 13.947266 8 A 7.1075806 6.8543943 0 0 1 11.583984 10.169922 L 12.232422 10.818359 A 7.9960281 7.7111936 0 0 0 15 8.0097656 L 14.992188 8 L 15 7.9921875 A 7.9960281 7.7111936 0 0 0 7.9980469 4 A 7.9960281 7.7111936 0 0 0 7.9804688 4 L 7.9609375 4 z M 4.7070312 4.7070312 A 7.9960281 7.7111936 0 0 0 1 8 A 7.9960281 7.7111936 0 0 0 7.9980469 12 A 7.9960281 7.7111936 0 0 0 11.302734 11.302734 L 10.119141 10.119141 A 2.9999996 3.0000002 0 0 1 8 11 A 2.9999996 3.0000002 0 0 1 5 7.9980469 A 2.9999996 3.0000002 0 0 1 5.8789062 5.8789062 L 4.7070312 4.7070312 z M 4.7910156 5.6171875 A 3.9999996 4.0000004 0 0 0 4 7.9980469 A 3.9999996 4.0000004 0 0 0 4.7988281 10.388672 A 7.1075806 6.8543943 0 0 1 2.0429688 8 A 7.1075806 6.8543943 0 0 1 4.7910156 5.6171875 z M 8 5.9980469 A 1.9999999 2.0000003 0 0 0 7.4824219 6.0683594 L 8.0644531 6.6503906 A 0.9999999 1 0 0 1 8.5898438 6.0898438 A 1.9999999 2.0000003 0 0 0 8 5.9980469 z M 6.5859375 6.5859375 A 1.9999999 2.0000003 0 0 0 6 7.9980469 A 1.9999999 2.0000003 0 0 0 8 9.9980469 A 1.9999999 2.0000003 0 0 0 9.4121094 9.4121094 L 6.5859375 6.5859375 z M 9.9101562 7.4101562 A 0.9999999 1 0 0 1 9.3496094 7.9355469 L 9.9316406 8.5175781 A 1.9999999 2.0000003 0 0 0 10 7.9980469 A 1.9999999 2.0000003 0 0 0 9.9101562 7.4101562 z "
     id="rect4170" />
  <path
     style="fill:#000000;fill-opacity:1;stroke:none;stroke-width:4.12310553"
     d="M 2.7070312 2.7070312 L 2 3.4140625 L 12.607422 14.021484 L 13.314453 13.314453 L 2.7070312 2.7070312 z "
     id="path824" />
</svg>
