<?xml version="1.0" encoding="UTF-8" standalone="no"?>
<svg
   viewBox="0 0 16 16"
   version="1.1"
   id="svg5"
   sodipodi:docname="bulicommander.svg"
   inkscape:version="1.1 (c4e8f9e, 2021-05-24)"
   width="32"
   height="32"
   xmlns:inkscape="http://www.inkscape.org/namespaces/inkscape"
   xmlns:sodipodi="http://sodipodi.sourceforge.net/DTD/sodipodi-0.dtd"
   xmlns="http://www.w3.org/2000/svg"
   xmlns:svg="http://www.w3.org/2000/svg"
   xmlns:rdf="http://www.w3.org/1999/02/22-rdf-syntax-ns#"
   xmlns:cc="http://creativecommons.org/ns#"
   xmlns:dc="http://purl.org/dc/elements/1.1/">
  <metadata
     id="metadata9">
    <rdf:RDF>
      <cc:Work
         rdf:about="">
        <dc:format>image/svg+xml</dc:format>
        <dc:type
           rdf:resource="http://purl.org/dc/dcmitype/StillImage" />
      </cc:Work>
    </rdf:RDF>
  </metadata>
  <sodipodi:namedview
     pagecolor="#ffffff"
     bordercolor="#666666"
     borderopacity="1"
     objecttolerance="10"
     gridtolerance="10"
     guidetolerance="10"
     inkscape:pageopacity="0"
     inkscape:pageshadow="2"
     inkscape:window-width="3840"
     inkscape:window-height="2064"
     id="namedview7"
     showgrid="true"
     inkscape:zoom="8"
     inkscape:cx="30.8125"
     inkscape:cy="68"
     inkscape:window-x="1920"
     inkscape:window-y="0"
     inkscape:window-maximized="1"
     inkscape:current-layer="svg5"
     inkscape:snap-bbox="true"
     inkscape:bbox-nodes="true"
     inkscape:snap-page="true"
     inkscape:document-rotation="0"
     inkscape:snap-bbox-edge-midpoints="true"
     inkscape:snap-grids="true"
     inkscape:object-nodes="true"
     inkscape:pagecheckerboard="0">
    <inkscape:grid
       type="xygrid"
       id="grid828" />
  </sodipodi:namedview>
  <defs
     id="defs3051">
    <style
       type="text/css"
       id="current-color-scheme">
      .ColorScheme-Text {
        color:#232629;
      }
      </style>
  </defs>
  <g
     id="g10117"
     style="opacity:0.5">
    <path
       style="fill:#000000;fill-opacity:0.25;stroke:none;stroke-width:0.5px;stroke-linecap:butt;stroke-linejoin:miter;stroke-opacity:1"
       d="m 4.5,13 1,2.5 9.729492,-0.118164 L 15.377223,7.8383495 14.320204,7 12.873625,6.6120105 11.856495,7.3279625 10.83765,8.3666545 8,11 5.8081245,12 Z"
       id="path1949" />
    <path
       style="mix-blend-mode:normal;fill:#ffffff;fill-opacity:0.75;stroke:none;stroke-width:0.5px;stroke-linecap:butt;stroke-linejoin:miter;stroke-opacity:1"
       d="M 5.292198,12.5 C 5.6837083,13.037512 5.8632282,13.577221 6.8405875,14 7.6870788,14.366169 13.92331,9.0096821 13.834793,8 13.767648,7.2341067 13.295685,6.9933082 13,6.5 L 12,7 12.735142,5 9.5,3 6.5,4 4.8370514,6.1628875 3.5,7.5 3.3428726,9 3.5,11.180601 Z"
       id="path881"
       sodipodi:nodetypes="csscccccccccc" />
    <path
       id="path15138"
       style="fill:#000000;fill-opacity:0.25;stroke:none;stroke-width:0.5px;stroke-linecap:butt;stroke-linejoin:miter;stroke-opacity:1"
       d="M 9.0322265,0.5 9.5,2.618164 8.9970705,3 10,2.7861328 11.96875,5.216797 12.786133,4.571289 13,3.5 14.44043,0.5 Z M 2.6259765,4 0.5,4.7910156 V 9.798828 L 2.1738281,10.31543 3.1875,10.275391 4,11.5 4.001955,11.5049 4.5595722,11.06447 3.5,9.8828125 4,6.798828 4.3486328,6.4521485 Z" />
    <path
       id="path1212"
       style="fill:#808080;fill-opacity:1;stroke:none;stroke-width:0.5px;stroke-linecap:butt;stroke-linejoin:miter;stroke-opacity:1"
       d="M 8.515625,0.5 C 8.509435,1.2086992 8.684398,1.8529067 8.9472655,2.1865235 8.5373425,2.2782806 8.136464,2.4032636 7.7529295,2.5625 c -0.04479,0.018174 -0.089178,0.037135 -0.133789,0.056641 -0.055947,0.024691 -0.111886,0.049943 -0.166992,0.076172 -0.047155,0.022459 -0.0938,0.045496 -0.140625,0.069336 -0.00943,0.0048 -0.018905,0.00979 -0.02832,0.014649 C 7.2409085,2.801025 7.1989425,2.823999 7.157227,2.846681 7.079725,2.888934 7.002957,2.932817 6.9267585,2.9785168 6.9013835,2.9938338 6.8757045,3.0087178 6.8505865,3.0244148 6.333747,3.3438435 5.8547045,3.7384264 5.451172,4.1630859 5.1145625,4.4838481 4.806439,4.8183579 4.5332031,5.1484375 3.8025195,3.5740879 2.0674803,2.8044654 0.5,3.1425781 V 5.510742 C 0.7981236,5.300385 1.1279498,5.2020085 1.461914,5.189453 c 0.027257,-0.001 0.054737,-0.00105 0.082031,-0.001 0.846118,0.00295 1.7028779,0.536134 2.1191409,1.1552735 C 3.3585877,6.824006 3.1641438,7.2181635 3.1015625,7.430664 2.9952453,7.791674 2.7478944,8.504461 2.7480469,9.7109375 1.9809555,9.8368145 1.1331194,9.614149 0.5,9.1552735 v 1.3974615 c 0.670844,0.266669 1.431582,0.366658 2.2480469,0.225586 C 2.8153279,12.33979 3.3539217,13.998089 4.5,15.678711 L 15.5,15.5 15.668946,4.3515625 15.601563,4.4707031 c -1.007836,-0.5678177 -1.77663,-0.1099429 -1.964844,0.484375 -0.09411,0.2971589 -0.05222,0.6368129 0.224609,0.9687499 0.276831,0.331937 0.806144,0.6536525 1.6875,0.830078 l -0.09766,0.492188 C 14.492953,7.05428 13.852096,6.6920865 13.478516,6.2441405 c -0.37358,-0.4479455 -0.462179,-0.985318 -0.31836,-1.439453 0.14382,-0.4541349 0.510409,-0.8178791 0.994141,-0.9824219 0.4326,-0.1471499 0.959446,-0.1331105 1.500977,0.1162109 -0.0518,-0.12018 -0.185551,-0.2736407 -0.353516,-0.4326171 -0.297655,-0.3138586 -0.688963,-0.5860877 -1.147461,-0.8105469 -0.02065,-0.00983 -0.04209,-0.020873 -0.06152,-0.029297 -0.05339,-0.025318 -0.107037,-0.051175 -0.16211,-0.075195 C 14.086569,2.5255563 14.766365,1.5760666 14.985352,0.5 H 13.646485 C 13.63168,1.1561728 13.393262,1.850776 13.165039,2.3154297 12.155043,2.0177966 10.974438,1.9101675 9.8134765,2.0419922 9.6278635,1.6480438 9.509693,1.0672243 9.5654295,0.5 Z m 0.8691405,3.413086 c 0.036245,-2.937e-4 0.072726,5.35e-4 0.109375,0.00196 0.5865505,0.023004 1.1731875,0.2646842 1.6308595,0.6718749 0.953375,0.8478315 1.098543,2.16789 0.324219,2.948242 -0.774123,0.7805735 -2.1746565,0.725916 -3.12793,-0.12207 C 7.368129,6.5650064 7.2233975,5.2449349 7.998047,4.4648456 8.3463945,4.1135377 8.841121,3.9174931 9.3847655,3.9130879 Z M 9.6328125,4.5 A 0.6332698,0.6207368 0 0 0 9,5.121094 0.6332698,0.6207368 0 0 0 9.6328125,5.741211 0.6332698,0.6207368 0 0 0 10.266602,5.121094 0.6332698,0.6207368 0 0 0 9.6328125,4.5 Z M 10.685547,5.5078125 A 0.5,0.49198184 0 0 0 10.185547,6 a 0.5,0.49198184 0 0 0 0.5,0.4921875 0.5,0.49198184 0 0 0 0.5,-0.4921875 0.5,0.49198184 0 0 0 -0.5,-0.4921875 z M 9.6572265,6.129883 A 0.34288708,0.3702662 0 0 0 9.314453,6.5 0.34288708,0.3702662 0 0 0 9.6572265,6.870117 0.34288708,0.3702662 0 0 0 10,6.5 0.34288708,0.3702662 0 0 0 9.6572265,6.129883 Z M 5.980469,6.7421875 c 0.01463,-3.1e-4 0.02921,0 0.043945,0 0.029465,0 0.059262,5.5e-4 0.088867,0.00195 0.924092,0.04467 1.7832465,0.769644 2.094727,1.7675785 C 8.5879835,9.729743 8.0317765,10.935733 6.9658205,11.205075 5.9002205,11.474623 4.728489,10.706003 4.3486328,9.488278 3.9686572,8.270251 4.5248624,7.064261 5.5908205,6.794919 c 0.112403,-0.028265 0.228077,-0.045255 0.345703,-0.050782 0.01464,-7e-4 0.029315,-0.00165 0.043946,-0.00195 z m 7.413086,0.2148435 c 1.240795,0.054056 1.914062,1.9169925 1.914062,1.9169925 L 15.229492,15.381836 6.7646485,15.5 C 6.3317635,15.52303 5.1783315,13.557845 5.7128905,12.833985 6.499723,11.768515 8.2257515,11.169745 9.548828,10.064453 10.665385,9.131687 11.730153,7.327319 13,7 c 0.09321,-0.024025 0.183585,-0.03742 0.271485,-0.04199 0.0412,-0.00215 0.08204,-0.0027 0.12207,-10e-4 z M 6.1328125,7.5 A 0.6332698,0.6207368 0 0 0 5.5,8.121094 0.6332698,0.6207368 0 0 0 6.1328125,8.741211 0.6332698,0.6207368 0 0 0 6.7666015,8.121094 0.6332698,0.6207368 0 0 0 6.1328125,7.5 Z M 7.185547,8.5078125 A 0.5,0.49198184 0 0 0 6.685547,9 a 0.5,0.49198184 0 0 0 0.5,0.4921875 0.5,0.49198184 0 0 0 0.5,-0.4921875 0.5,0.49198184 0 0 0 -0.5,-0.4921875 z M 6.1572265,9.129883 A 0.34288708,0.3702662 0 0 0 5.814453,9.5 0.34288708,0.3702662 0 0 0 6.1572265,9.870117 0.34288708,0.3702662 0 0 0 6.5,9.5 0.34288708,0.3702662 0 0 0 6.1572265,9.129883 Z" />
    <path
       id="path822"
       style="fill:#000000;fill-opacity:1;stroke:none;stroke-width:3.74166"
       d="M 0.974609,0 C 0.436363,0.01375866 0,0.45859375 0,1 v 14 c 0,0.55 0.45,1 1,1 h 14 c 0.55,0 1,-0.45 1,-1 V 1 C 16,0.45 15.55,0 15,0 H 1 C 0.9914,0 0.98315,-2.1839e-4 0.974609,0 Z M 1,1 H 15 V 15 H 1 Z" />
  </g>
</svg>
